<?xml version="1.0" standalone="no"?>
<!DOCTYPE svg PUBLIC "-//W3C//DTD SVG 20010904//EN"
 "http://www.w3.org/TR/2001/REC-SVG-20010904/DTD/svg10.dtd">
<svg version="1.0" xmlns="http://www.w3.org/2000/svg"
 width="30.000000pt" height="32.000000pt" viewBox="0 0 30.000000 32.000000"
 preserveAspectRatio="xMidYMid meet">
<metadata>
Created by potrace 1.16, written by Peter Selinger 2001-2019
</metadata>
<g transform="translate(0.000000,32.000000) scale(0.100000,-0.100000)"
fill="#000000" stroke="none">
<path d="M190 280 c0 -11 -4 -20 -10 -20 -5 0 -10 5 -10 10 0 6 -4 10 -10 10
-5 0 -10 -7 -10 -15 0 -8 -4 -15 -10 -15 -5 0 -10 -9 -10 -20 0 -11 -4 -20
-10 -20 -5 0 -10 9 -10 21 0 26 -23 49 -49 49 -16 0 -21 -6 -21 -25 0 -14 -4
-25 -10 -25 -5 0 -10 -4 -10 -10 0 -5 9 -10 20 -10 26 0 25 -8 -2 -33 -16 -13
-19 -21 -10 -24 14 -5 16 -43 2 -43 -5 0 -10 -7 -10 -15 0 -8 -4 -15 -10 -15
-5 0 -10 -4 -10 -10 0 -14 37 -12 44 3 5 10 7 10 12 0 12 -27 34 -13 34 22 0
28 4 35 20 35 11 0 20 -4 20 -10 0 -5 -4 -10 -10 -10 -5 0 -10 -25 -10 -55 0
-54 0 -55 30 -55 23 0 30 4 30 20 0 11 5 20 10 20 6 0 10 20 10 45 0 25 5 45
10 45 6 0 10 -4 10 -10 0 -14 28 -12 32 2 5 15 38 -13 38 -31 0 -6 5 -11 10
-11 6 0 10 11 10 25 0 18 -5 25 -20 25 -13 0 -20 7 -20 20 0 11 5 20 10 20 6
0 10 9 10 20 0 11 -4 20 -10 20 -5 0 -10 11 -10 25 0 14 -4 25 -10 25 -5 0
-10 9 -10 20 0 15 -7 20 -25 20 -18 0 -25 -5 -25 -20z"/>
</g>
</svg>
